<?xml version="1.0" encoding="UTF-8"?>
<svg width="100px" height="19px" viewBox="0 0 100 19" version="1.1" xmlns="http://www.w3.org/2000/svg" xmlns:xlink="http://www.w3.org/1999/xlink">
    <title>AE279E05-C49F-457D-8091-70A6DCF1F0A5</title>
    <g id="IBD-landing-page" stroke="none" stroke-width="1" fill="none" fill-rule="evenodd">
        <g id="tablet/organism/header/o-navigation-main" transform="translate(-39.000000, -21.000000)">
            <rect id="Base" fill="#323E48" x="0" y="0" width="768" height="60"></rect>
            <g id="Group_16" transform="translate(39.000000, 21.000000)">
                <g id="Group_4" transform="translate(36.202393, 0.000000)" fill="#F58800">
                    <polygon id="Path_2" points="3.15909681 0 0 2.05953039 0.802671151 3.34696133 4.06232044 1.59627072"></polygon>
                </g>
                <g id="Group_8" transform="translate(0.000000, 0.956630)" fill="#FFFFFF" fill-rule="nonzero">
                    <path d="M5.86701898,6.09640884 L11.532933,6.09640884 L11.532933,8.41360497 L10.7809753,8.51685083 L10.7809753,12.3270718 C9.40506041,12.8715971 7.94316348,13.1509906 6.46858515,13.1512431 C2.15619505,13.1512431 -0.00174873889,10.834047 -0.00174873889,6.71588398 C-0.027198924,4.91445179 0.675963096,3.18282748 1.94022137,1.93354 C3.20447964,0.684252523 4.91664193,0.0291537423 6.66881576,0.124309392 C8.06080051,0.0553134957 9.45338197,0.24728286 10.7783521,0.690814917 L10.7783521,4.60338398 L7.92266154,4.60338398 L7.77227,3.36802486 C7.46290659,3.27829395 7.14079698,3.24397499 6.82008167,3.26657459 C5.96569972,3.22367579 5.13472357,3.56074037 4.53956534,4.19160869 C3.94440711,4.82247701 3.64274833,5.6860066 3.71169829,6.56146409 C3.71169829,8.46657459 4.3639779,10.0107735 6.82008167,10.0107735 C7.02184743,10.0172953 7.22367831,10.000126 7.42164785,9.95959945 L7.42164785,8.56353591 L5.86701898,8.36153315 L5.86701898,6.09640884 Z" id="Path_3"></path>
                </g>
                <g id="Group_9" transform="translate(13.638078, 4.097099)" fill="#FFFFFF" fill-rule="nonzero">
                    <path d="M5.11539755,3.83128453 C5.11539755,2.69827348 4.51383137,2.33825967 3.96210425,2.33825967 C3.48142731,2.31948785 3.00246074,2.40737419 2.55786692,2.59592541 L2.45731444,3.57451657 L0.70245496,3.57451657 L0.70245496,0.74198895 C1.81206027,0.269261234 3.01082494,0.0581840631 4.21042517,0.124309392 C6.66740331,0.124309392 8.02092722,0.999654696 8.02092722,3.72803867 C8.02092722,5.27223757 7.97108816,6.30200276 7.92037473,7.64060773 L9.42429018,7.79502762 L9.42429018,9.75131215 L7.72276724,9.91022099 L5.4660197,9.91022099 L5.4660197,9.23687845 C5.4471669,8.97838615 5.46394545,8.71845537 5.51585876,8.46477901 C5.03198825,9.36266798 4.14955005,9.95933511 3.15506125,10.0610497 C1.09941869,10.0610497 0.094768196,8.77361878 0.094768196,7.33266575 C0.113004482,6.15537544 0.858949102,5.12054614 1.95018016,4.75870166 C2.95866788,4.29996938 4.05728565,4.08849936 5.15911602,4.1410221 L5.15911602,3.83218232 L5.11539755,3.83128453 Z M4.66422292,5.83964088 C3.00991593,5.83964088 2.50802786,6.19875691 2.50802786,6.86940608 C2.50802786,7.33266575 2.80881095,7.79592541 3.6114821,7.79592541 C4.41415325,7.79592541 5.21595004,7.28149171 5.21595004,5.83964088 L4.66422292,5.83964088 Z" id="Path_4"></path>
                </g>
                <g id="Group_10" transform="translate(25.422292, 0.257666)" fill="#FFFFFF" fill-rule="nonzero">
                    <polygon id="Path_5" points="1.60446793 1.9051105 0 1.64744475 0 0.205593923 1.75485948 0 3.96089359 0 3.96089359 11.9406077 5.46480903 12.1462017 5.46480903 13.6904006 0 13.6904006 0 12.1462017 1.60446793 11.9406077"></polygon>
                </g>
                <g id="Group_11" transform="translate(45.177795, 4.200345)" fill="#FFFFFF" fill-rule="nonzero">
                    <path d="M0,0.536395028 L1.70502042,0.330801105 L3.45987989,0.330801105 C3.45987989,1.00055249 3.30948835,2.2359116 3.30948835,2.2359116 C3.7382941,0.895635489 4.99924502,0.025949276 6.36978141,0.125207182 C8.32574586,0.125207182 9.72910882,1.77265193 9.72910882,4.60428177 C9.72910882,7.69357735 8.07480183,9.95870166 5.3170406,9.95870166 C4.70250034,9.96508749 4.09164688,9.86055156 3.51234206,9.64986188 L3.462503,14.3354282 L1.55462887,14.3354282 L1.60446793,1.97914365 L0,1.82292818 L0,0.536395028 Z M3.50971895,7.9503453 C3.99188057,8.25057908 4.55114146,8.39421759 5.11418688,8.36243094 C6.76849387,8.36243094 7.67171751,6.71498619 7.67171751,4.91312155 C7.67171751,3.16243094 7.07015133,1.92707182 5.76646649,1.92707182 C4.41294259,1.92707182 3.56043238,3.16243094 3.56043238,5.37638122 L3.56043238,7.9503453 L3.50971895,7.9503453 Z" id="Path_6"></path>
                </g>
                <g id="Group_12" transform="translate(58.110593, 4.427901)" fill="#FFFFFF" fill-rule="nonzero">
                    <path d="M0.806168628,2.05953039 L0.505385539,0.669751381 C1.4543292,0.241374912 2.47756982,0.0135969297 3.5140908,0 C5.8748883,0 7.1742013,0.824171271 7.1742013,3.2948895 C7.1742013,4.11906077 7.12436224,6.48653315 7.12436224,8.18604972 L8.67899111,8.34046961 L8.67899111,9.31906077 L7.12436224,9.47348066 L5.62044679,9.47348066 L5.62044679,9.11436464 C5.62044679,8.54785912 5.67028585,7.72458564 5.67028585,7.72458564 C5.18048264,8.92489513 4.02947033,9.69916929 2.76213308,9.68087017 C1.71288974,9.68087017 -0.096180639,9.26878453 0.00437184723,7.00366022 C0.104924333,4.99530387 2.46134999,4.0176105 5.47005525,4.0176105 L5.47005525,3.45110497 C5.47005525,1.70041436 4.77055969,1.2371547 3.36369926,1.2371547 C2.67180568,1.25356575 1.98999154,1.4110373 1.35789575,1.70041436 C0.956560173,1.95628453 0.806168628,2.05953039 0.806168628,2.05953039 Z M5.46918088,5.30324586 C3.56392986,5.30324586 1.60796541,5.66236188 1.60796541,6.95069061 C1.57561185,7.35155732 1.72029699,7.74615216 2.00209159,8.02557749 C2.2838862,8.30500282 2.67299773,8.43971661 3.0620418,8.39254144 C3.91542638,8.34046961 5.46918088,7.87720994 5.46918088,5.30324586 Z" id="Path_7"></path>
                </g>
                <g id="Group_13" transform="translate(69.747576, 4.427901)" fill="#FFFFFF" fill-rule="nonzero">
                    <path d="M8.97540235,1.33860497 L8.1727312,1.33860497 C7.76999309,1.32977923 7.36817662,1.29529766 6.96959885,1.23535912 C7.54654639,1.81590948 7.85640783,2.62061283 7.82210906,3.44930939 C7.82210906,5.50883978 6.11708864,6.7441989 4.01160701,6.7441989 C3.66185924,6.7441989 2.35730002,6.94979282 2.35730002,7.6195442 C2.35730002,8.08280387 2.7586356,8.23722376 3.9119289,8.39164365 L6.31906798,8.80372928 C7.72330531,9.06139503 8.77604612,9.57582873 8.77604612,11.0688536 C8.77604612,13.2316298 6.61985107,14.2111188 4.31676195,14.2111188 C2.1605669,14.2111188 0.00437184723,13.4928867 0.00437184723,11.6883287 C0.00437184723,10.2985497 1.10782609,9.67997238 2.31095844,9.42320442 L2.31095844,9.37203039 C1.61146289,9.2176105 0.906721115,8.80552486 0.906721115,7.93017956 C0.906721115,6.9515884 1.80907038,6.74599448 2.5610281,6.54040055 L2.5610281,6.48922652 C1.14003295,6.17343016 0.15870258,4.83656283 0.254441509,3.34696133 C0.254441509,1.44185083 1.80907038,0 4.01423012,0 C4.53812416,0.0110422609 5.05933757,0.0799708081 5.568859,0.205593923 L8.9281864,0.205593923 L8.9281864,1.33860497 L8.97540235,1.33860497 Z M3.35932741,9.67907459 C3.15909681,9.67907459 1.3535239,10.1935083 1.3535239,11.4297652 C1.3535239,12.871616 3.45987989,13.0772099 4.36222916,13.0772099 C5.4656834,13.0772099 7.32022099,12.7180939 7.32022099,11.2241713 C7.32022099,10.4 6.56826327,10.1468232 5.76559212,10.0399862 L3.35932741,9.67907459 Z M1.65430699,3.34606354 C1.66851863,3.97009055 1.926852,4.56195535 2.37102462,4.98812752 C2.81519724,5.41429969 3.40778864,5.63887527 4.01510449,5.61118785 C4.66150274,5.67238391 5.30292434,5.44977935 5.78061675,4.99846903 C6.25830917,4.54715872 6.52762987,3.90931965 6.52192169,3.24281768 C6.51260948,2.61184813 6.24656692,2.01367019 5.78826118,1.59323377 C5.32995545,1.17279735 4.72121034,0.968470385 4.10953639,1.02976519 C3.48266125,0.994636836 2.86851791,1.22082022 2.40630101,1.65705124 C1.94408411,2.09328225 1.6729342,2.70262083 1.65430699,3.34696133 L1.65430699,3.34606354 Z" id="Path_8"></path>
                </g>
                <path d="M85.842969,4.53024862 C87.0094762,4.46475308 88.1467678,4.91931502 88.9631579,5.77735102 C89.7795479,6.63538703 90.1956139,7.81342303 90.1046457,9.0093232 C90.1046457,11.8921271 88.5001778,14.0037293 85.842969,14.0037293 C84.6764618,14.0692248 83.5391702,13.6146629 82.7227802,12.7566269 C81.9063901,11.8985909 81.4903241,10.7205549 81.5812923,9.5246547 C81.5314533,6.64095304 83.1359212,4.53024862 85.842969,4.53024862 Z M85.842969,13.128384 C87.8487725,13.128384 88.8516743,11.4297652 88.8516743,9.31816298 C88.8516743,7.20656077 87.8487725,5.50794199 85.842969,5.50794199 C83.8371655,5.50794199 82.8342638,7.20656077 82.8342638,9.31816298 C82.8342638,11.4297652 83.8380399,13.128384 85.842969,13.128384 Z" id="Path_9" fill="#FFFFFF" fill-rule="nonzero"></path>
                <g id="Group_14" transform="translate(93.615239, 4.324655)" fill="#FFFFFF" fill-rule="nonzero">
                    <path d="M0,8.28929558 C0.712004857,8.73114237 1.52886447,8.96288307 2.3607975,8.95904696 C4.01510449,8.95904696 4.76793658,8.13487569 4.76793658,7.15718232 C4.76793658,6.07983425 4.01597886,5.5609116 2.56190247,5.09765193 C0.856882056,4.58321823 0.00437184723,3.70787293 0.00437184723,2.57486188 C0.00437184723,1.28743094 1.05361518,0.000897790055 3.11275522,0.000897790055 C3.76705423,0.0173281997 4.41285055,0.157007111 5.01800625,0.412983425 L5.01800625,1.39157459 C4.39207822,0.973503384 3.6582013,0.758297231 2.91165025,0.773895028 C1.60796541,0.773895028 0.905846745,1.54599448 0.905846745,2.42133978 C0.905846745,3.45110497 1.7085179,3.86319061 3.11188086,4.32645028 C4.86674033,4.8929558 5.71925054,5.61388122 5.71925054,7.00366022 C5.71925054,8.49668508 4.46540476,9.68087017 2.3092097,9.68087017 C1.51338653,9.68053487 0.726870904,9.50511976 0.00262310834,9.16643646 C0,9.26698895 0,8.28929558 0,8.28929558 Z" id="Path_10"></path>
                </g>
                <g id="Group_15" transform="translate(33.644862, 4.375829)" fill="#FFFFFF" fill-rule="nonzero">
                    <path d="M5.26457843,3.55255525 C5.26457843,2.11070442 4.66301225,1.95628453 3.50971895,1.95628453 C2.99964844,1.97480181 2.49409559,2.06141815 2.00580351,2.21395028 C1.50478982,2.36837017 0.852510209,2.5730663 0.852510209,2.5730663 L0.652279606,0.667955801 C1.68116755,0.212803507 2.79169159,-0.0153728833 3.9119289,-0.00179558011 C6.36890704,-0.00179558011 7.67171751,0.770303867 7.67171751,3.49958564 C7.67171751,5.04378453 7.62187845,6.33121547 7.57116503,7.66982044 L9.22547202,7.82424033 L9.22547202,9.36843923 L7.62100408,9.52285912 L5.51552246,9.52285912 L5.51552246,8.95635359 C5.5052568,8.6441472 5.53912654,8.33206171 5.61607495,8.02983425 C5.1091839,9.09413408 4.0593402,9.77220853 2.90552967,9.78052486 C0.849887101,9.78052486 -0.00262310834,8.49309392 -0.00262310834,7.05214088 C0.119568693,5.86579147 0.902718917,4.86080741 2.0031804,4.4781768 C3.03545125,4.03960572 4.14609741,3.82914644 5.26282969,3.86049724 L5.26457843,3.55255525 Z M4.66301225,5.45766575 C2.95799183,5.45766575 2.25587317,6.12741713 2.25587317,6.74509669 C2.24371502,7.05843253 2.3632597,7.36202812 2.58409178,7.57864043 C2.80492387,7.79525274 3.10575329,7.90399855 3.41004084,7.87720994 C4.26255104,7.87720994 5.2654528,7.1589779 5.2654528,5.4531768 L4.66301225,5.45766575 Z" id="Path_11"></path>
                </g>
            </g>
        </g>
    </g>
</svg>