<?xml version="1.0" encoding="UTF-8"?>
<svg width="181px" height="36px" viewBox="0 0 181 36" version="1.1" xmlns="http://www.w3.org/2000/svg" xmlns:xlink="http://www.w3.org/1999/xlink">
    <title>6827BAEB-E2EC-4877-AAB3-57E325B00A92</title>
    <g id="IBD-landing-page" stroke="none" stroke-width="1" fill="none" fill-rule="evenodd">
        <g id="Startseite" transform="translate(-41.000000, -32.000000)">
            <g id="Organism/header/o-navigation-main" transform="translate(0.500000, 0.500000)">
                <g id="Group_16" transform="translate(40.500000, 32.000000)">
                    <g id="Group_4" transform="translate(65.526330, 0.000000)" fill="#F58800">
                        <polygon id="Path_2" points="5.71796522 0 0 3.72775 1.45283478 6.058 7.3528 2.88925"></polygon>
                    </g>
                    <g id="Group_8" transform="translate(0.000000, 1.731500)" fill="#FFFFFF" fill-rule="nonzero">
                        <path d="M10.6193043,11.0345 L20.8746087,11.0345 L20.8746087,15.228625 L19.5135652,15.4155 L19.5135652,22.312 C17.0231593,23.2975908 14.3771259,23.8032929 11.7081391,23.80375 C3.90271304,23.80375 -0.00316521739,19.609625 -0.00316521739,12.15575 C-0.0492300525,8.89515774 1.2234932,5.76091774 3.51180068,3.4997074 C5.80010815,1.23849707 8.89912189,0.0527682736 12.0705565,0.225 C14.5900489,0.100117427 17.1106214,0.447581977 19.5088174,1.250375 L19.5088174,8.332125 L14.3400174,8.332125 L14.0678087,6.096125 C13.5078609,5.93371205 12.9248425,5.87159474 12.3443478,5.9125 C10.7979165,5.83485317 9.29384966,6.44494007 8.21661326,7.58681173 C7.13937687,8.72868339 6.59337448,10.2916719 6.71817391,11.87625 C6.71817391,15.3245 7.8988,18.1195 12.3443478,18.1195 C12.7095439,18.1313046 13.0748577,18.100228 13.4331826,18.026875 L13.4331826,15.5 L10.6193043,15.134375 L10.6193043,11.0345 Z" id="Path_3"></path>
                    </g>
                    <g id="Group_9" transform="translate(24.684922, 7.415750)" fill="#FFFFFF" fill-rule="nonzero">
                        <path d="M9.25886957,6.934625 C9.25886957,4.883875 8.17003478,4.23225 7.1714087,4.23225 C6.30138343,4.19827301 5.43445395,4.35734728 4.62973913,4.698625 L4.44773913,6.469875 L1.27144348,6.469875 L1.27144348,1.343 C3.27982909,0.487362834 5.44959313,0.105313154 7.62086957,0.225 C12.068,0.225 14.5178783,1.809375 14.5178783,6.74775 C14.5178783,9.54275 14.4276696,11.406625 14.3358783,13.8295 L17.0579652,14.109 L17.0579652,17.649875 L13.9782087,17.9375 L9.89349565,17.9375 L9.89349565,16.71875 C9.85937209,16.2508789 9.88974126,15.7804042 9.98370435,15.32125 C9.10789873,16.9464291 7.51068559,18.0263965 5.71066087,18.2105 C1.98994783,18.2105 0.171530435,15.88025 0.171530435,13.272125 C0.204538112,11.1412296 1.55469788,9.26818852 3.52982609,8.61325 C5.35518886,7.78294458 7.34368703,7.40018383 9.338,7.49525 L9.338,6.93625 L9.25886957,6.934625 Z M8.44224348,10.56975 C5.44794783,10.56975 4.53953043,11.21975 4.53953043,12.433625 C4.53953043,13.272125 5.08394783,14.110625 6.53678261,14.110625 C7.98961739,14.110625 9.44086957,13.1795 9.44086957,10.56975 L8.44224348,10.56975 Z" id="Path_4"></path>
                    </g>
                    <g id="Group_10" transform="translate(46.014348, 0.466375)" fill="#FFFFFF" fill-rule="nonzero">
                        <polygon id="Path_5" points="2.90408696 3.44825 0 2.981875 0 0.372125 3.17629565 0 7.16921739 0 7.16921739 21.6125 9.89130435 21.984625 9.89130435 24.779625 0 24.779625 0 21.984625 2.90408696 21.6125"></polygon>
                    </g>
                    <g id="Group_11" transform="translate(81.771809, 7.602625)" fill="#FFFFFF" fill-rule="nonzero">
                        <path d="M0,0.970875 L3.08608696,0.59875 L6.26238261,0.59875 C6.26238261,1.811 5.99017391,4.047 5.99017391,4.047 C6.76631232,1.62110023 9.04863348,0.0469681896 11.5293043,0.226625 C15.0696,0.226625 17.609687,3.2085 17.609687,8.33375 C17.609687,13.925375 14.6153913,18.02525 9.62384348,18.02525 C8.51152561,18.0368084 7.40588084,17.8475983 6.35733913,17.46625 L6.26713043,25.947125 L2.81387826,25.947125 L2.90408696,3.58225 L0,3.2995 L0,0.970875 Z M6.3525913,14.390125 C7.22530382,14.9335481 8.23756605,15.1935338 9.25667826,15.136 C12.2509739,15.136 13.8858087,12.154125 13.8858087,8.89275 C13.8858087,5.724 12.7969739,3.488 10.4373043,3.488 C7.98742609,3.488 6.44438261,5.724 6.44438261,9.73125 L6.44438261,14.390125 L6.3525913,14.390125 Z" id="Path_6"></path>
                    </g>
                    <g id="Group_12" transform="translate(105.180174, 8.014500)" fill="#FFFFFF" fill-rule="nonzero">
                        <path d="M1.45916522,3.72775 L0.914747826,1.21225 C2.63233585,0.436888592 4.48440137,0.0246104427 6.36050435,0 C10.6335478,0 12.9853043,1.49175 12.9853043,5.96375 C12.9853043,7.4555 12.8950957,11.740625 12.8950957,14.81675 L15.7089739,15.09625 L15.7089739,16.8675 L12.8950957,17.147 L10.1730087,17.147 L10.1730087,16.497 C10.1730087,15.471625 10.2632174,13.9815 10.2632174,13.9815 C9.37667357,16.1540602 7.29334131,17.5554964 4.99946087,17.522375 C3.10033043,17.522375 -0.174086957,16.7765 0.00791304348,12.676625 C0.189913043,9.0415 4.45504348,7.271875 9.9008,7.271875 L9.9008,6.2465 C9.9008,3.07775 8.63471304,2.23925 6.08829565,2.23925 C4.83596828,2.26895401 3.6018847,2.55397751 2.4577913,3.07775 C1.73137391,3.540875 1.45916522,3.72775 1.45916522,3.72775 Z M9.89921739,9.598875 C6.45071304,9.598875 2.91041739,10.248875 2.91041739,12.58075 C2.85185746,13.3063187 3.11373756,14.0205354 3.62378579,14.5262953 C4.13383402,15.0320551 4.83812588,15.2758871 5.54229565,15.1905 C7.08692174,15.09625 9.89921739,14.25775 9.89921739,9.598875 Z" id="Path_7"></path>
                    </g>
                    <g id="Group_13" transform="translate(126.243113, 8.014500)" fill="#FFFFFF" fill-rule="nonzero">
                        <path d="M16.2454783,2.422875 L14.7926435,2.422875 C14.0636875,2.4069004 13.3363997,2.34448877 12.6149739,2.236 C13.659249,3.28679617 14.2200982,4.74330923 14.1580174,6.24325 C14.1580174,9.971 11.0719304,12.207 7.2610087,12.207 C6.62796522,12.207 4.26671304,12.579125 4.26671304,13.791375 C4.26671304,14.629875 4.99313043,14.909375 7.0805913,15.188875 L11.437513,15.93475 C13.9791826,16.401125 15.8846435,17.33225 15.8846435,20.034625 C15.8846435,23.94925 11.9819304,25.722125 7.81333913,25.722125 C3.91062609,25.722125 0.00791304348,24.422125 0.00791304348,21.155875 C0.00791304348,18.640375 2.00516522,17.52075 4.18283478,17.056 L4.18283478,16.963375 C2.91674783,16.683875 1.64116522,15.938 1.64116522,14.353625 C1.64116522,12.582375 3.27441739,12.21025 4.63546087,11.838125 L4.63546087,11.7455 C2.06345965,11.1739086 0.28725167,8.75417872 0.46053913,6.058 C0.46053913,2.60975 3.27441739,0 7.26575652,0 C8.21400474,0.0199864922 9.15740101,0.144747163 10.0796348,0.372125 L16.1600174,0.372125 L16.1600174,2.422875 L16.2454783,2.422875 Z M6.08038261,17.519125 C5.71796522,17.519125 2.44987826,18.45025 2.44987826,20.687875 C2.44987826,23.297625 6.26238261,23.66975 7.89563478,23.66975 C9.89288696,23.66975 13.2496,23.01975 13.2496,20.31575 C13.2496,18.824 11.8885565,18.36575 10.4357217,18.172375 L6.08038261,17.519125 Z M2.99429565,6.056375 C3.02001871,7.1858639 3.48760213,8.25713918 4.29155456,9.0285108 C5.095507,9.79988243 6.16809744,10.2063642 7.26733913,10.15625 C8.43731996,10.2670149 9.59829306,9.86410062 10.4629163,9.04722895 C11.3275396,8.23035728 11.8150101,7.07586856 11.8046783,5.8695 C11.7878232,4.72744511 11.3062861,3.64474305 10.4767527,2.88375313 C9.64721936,2.1227632 8.54539072,1.7529314 7.43826087,1.863875 C6.30361687,1.80029267 5.19201742,2.2096846 4.35540483,2.99926274 C3.51879225,3.78884087 3.02801091,4.8917437 2.99429565,6.058 L2.99429565,6.056375 Z" id="Path_8"></path>
                    </g>
                    <path d="M155.375774,8.19975 C157.487152,8.08120308 159.54565,8.90396018 161.023316,10.4570054 C162.500982,12.0100505 163.254061,14.1422957 163.089409,16.306875 C163.089409,21.52475 160.185322,25.34675 155.375774,25.34675 C153.264396,25.4652969 151.205898,24.6425398 149.728232,23.0894946 C148.250566,21.5364495 147.497487,19.4042043 147.662139,17.239625 C147.57193,12.020125 150.476017,8.19975 155.375774,8.19975 Z M155.375774,23.762375 C159.006278,23.762375 160.82153,20.687875 160.82153,16.865875 C160.82153,13.043875 159.006278,9.969375 155.375774,9.969375 C151.74527,9.969375 149.930017,13.043875 149.930017,16.865875 C149.930017,20.687875 151.746852,23.762375 155.375774,23.762375 Z" id="Path_9" fill="#FFFFFF" fill-rule="nonzero"></path>
                    <g id="Group_14" transform="translate(169.443583, 7.827625)" fill="#FFFFFF" fill-rule="nonzero">
                        <path d="M0,15.003625 C1.28872879,15.8033677 2.76724469,16.2228184 4.27304348,16.215875 C7.26733913,16.215875 8.62996522,14.724125 8.62996522,12.9545 C8.62996522,11.0045 7.26892174,10.06525 4.63704348,9.22675 C1.55095652,8.295625 0.00791304348,6.71125 0.00791304348,4.6605 C0.00791304348,2.33025 1.90704348,0.001625 5.63408696,0.001625 C6.81836815,0.0313640414 7.9872595,0.284182871 9.0825913,0.7475 L9.0825913,2.51875 C7.94966157,1.76204112 6.62134435,1.37251799 5.27008696,1.40075 C2.91041739,1.40075 1.63958261,2.79825 1.63958261,4.382625 C1.63958261,6.2465 3.09241739,6.992375 5.63250435,7.830875 C8.8088,8.85625 10.3518435,10.161125 10.3518435,12.676625 C10.3518435,15.379 8.08238261,17.522375 4.17966957,17.522375 C2.73922963,17.5217681 1.31563634,17.2042668 0.00474782609,16.59125 C0,16.77325 0,15.003625 0,15.003625 Z" id="Path_10"></path>
                    </g>
                    <g id="Group_15" transform="translate(60.897200, 7.920250)" fill="#FFFFFF" fill-rule="nonzero">
                        <path d="M9.52888696,6.430125 C9.52888696,3.820375 8.44005217,3.540875 6.3525913,3.540875 C5.42936368,3.57439128 4.51431302,3.73116686 3.63050435,4.00725 C2.72366957,4.28675 1.54304348,4.65725 1.54304348,4.65725 L1.18062609,1.209 C3.04291327,0.385174348 5.05296179,-0.0278249188 7.0805913,-0.00325 C11.5277217,-0.00325 13.8858087,1.39425 13.8858087,6.33425 C13.8858087,9.12925 13.7956,11.4595 13.7038087,13.882375 L16.6981043,14.161875 L16.6981043,16.956875 L13.7940174,17.236375 L9.98309565,17.236375 L9.98309565,16.211 C9.9645148,15.6459064 10.025819,15.0810317 10.1650957,14.534 C9.24762286,16.4603827 7.34740576,17.6876974 5.2590087,17.70275 C1.53829565,17.70275 -0.00474782609,15.3725 -0.00474782609,12.764375 C0.216419335,10.6170826 1.63392124,8.7980614 3.62575652,8.1055 C5.49416677,7.31168634 7.50443632,6.93075506 9.52572174,6.9875 L9.52888696,6.430125 Z M8.44005217,9.878375 C5.35396522,9.878375 4.08313043,11.090625 4.08313043,12.208625 C4.06112419,12.7757629 4.27750006,13.3252709 4.67720613,13.7173392 C5.0769122,14.1094075 5.62141346,14.3062374 6.17217391,14.25775 C7.71521739,14.25775 9.53046957,12.95775 9.53046957,9.87025 L8.44005217,9.878375 Z" id="Path_11"></path>
                    </g>
                </g>
            </g>
        </g>
    </g>
</svg>